<svg width="32" height="32" viewBox="0 0 32 32" fill="none" xmlns="http://www.w3.org/2000/svg">
<path d="M25.0666 13.2129C23.56 13.2129 22.2133 13.9462 21.3733 15.0662C20.5333 13.9462 19.1867 13.2129 17.68 13.2129C15.1333 13.2129 13.0667 15.2929 13.0667 17.8529C13.0667 18.8396 13.2266 19.7596 13.4933 20.5996C14.8 24.7462 18.8533 27.2396 20.8533 27.9196C21.1333 28.0129 21.6 28.0129 21.88 27.9196C23.88 27.2396 27.9333 24.7596 29.24 20.5996C29.52 19.7462 29.6667 18.8396 29.6667 17.8529C29.68 15.2929 27.6133 13.2129 25.0666 13.2129Z" fill="#7C5CFC"/>
<path d="M27.6666 11.1205C27.6666 11.4271 27.36 11.6271 27.0666 11.5471C25.2666 11.0805 23.2933 11.4671 21.8 12.5338C21.5066 12.7471 21.1066 12.7471 20.8266 12.5338C19.7733 11.7605 18.4933 11.3338 17.1466 11.3338C13.7066 11.3338 10.9066 14.1471 10.9066 17.6138C10.9066 21.3738 12.7066 24.1871 14.52 26.0671C14.6133 26.1605 14.5333 26.3205 14.4133 26.2671C10.7733 25.0271 2.66663 19.8805 2.66663 11.1205C2.66663 7.25379 5.77329 4.13379 9.61329 4.13379C11.8933 4.13379 13.9066 5.22712 15.1733 6.92046C16.4533 5.22712 18.4666 4.13379 20.7333 4.13379C24.56 4.13379 27.6666 7.25379 27.6666 11.1205Z" fill="#7C5CFC"/>
</svg>
