<svg width="32" height="32" viewBox="0 0 32 32" fill="none" xmlns="http://www.w3.org/2000/svg">
<path d="M29.3333 7.61333V20.3867C29.3333 24.0667 26.3467 27.0533 22.6667 27.0533H9.33335C8.72001 27.0533 8.13335 26.9733 7.56001 26.8133C6.73335 26.5867 6.46668 25.5333 7.08001 24.92L21.2533 10.7467C21.5467 10.4533 21.9867 10.3867 22.4 10.4667C22.8267 10.5467 23.2933 10.4267 23.6267 10.1067L27.0533 6.66666C28.3067 5.41333 29.3333 5.82666 29.3333 7.61333Z" fill="#7C5CFC"/>
<path d="M19.52 9.81336L5.55996 23.7734C4.91996 24.4134 3.85329 24.2534 3.42663 23.4534C2.93329 22.5467 2.66663 21.4934 2.66663 20.3867V7.61336C2.66663 5.82669 3.69329 5.41336 4.94663 6.66669L8.38663 10.12C8.90663 10.6267 9.75996 10.6267 10.28 10.12L15.0533 5.33336C15.5733 4.81336 16.4266 4.81336 16.9466 5.33336L19.5333 7.92003C20.04 8.44003 20.04 9.29336 19.52 9.81336Z" fill="#7C5CFC"/>
</svg>
